<mxfile host="app.diagrams.net" modified="2023-04-10T13:26:19.373Z" agent="Mozilla/5.0 (Windows NT 10.0; Win64; x64) AppleWebKit/537.36 (KHTML, like Gecko) Chrome/112.0.0.0 Safari/537.36" etag="f6QGvrELUDMCX3enjcVS" version="21.1.5" type="device">
  <diagram name="Page-1" id="2YBvvXClWsGukQMizWep">
    <mxGraphModel dx="886" dy="499" grid="1" gridSize="10" guides="1" tooltips="1" connect="1" arrows="1" fold="1" page="0" pageScale="1" pageWidth="850" pageHeight="1100" background="#FFFFFF" math="0" shadow="0">
      <root>
        <mxCell id="0" />
        <mxCell id="1" parent="0" />
        <mxCell id="cWejEI39qg-8yP3Bkxt4-56" value="alt" style="shape=umlFrame;whiteSpace=wrap;html=1;pointerEvents=0;" parent="1" vertex="1">
          <mxGeometry x="260" y="250" width="670" height="410" as="geometry" />
        </mxCell>
        <mxCell id="cWejEI39qg-8yP3Bkxt4-16" value="&amp;nbsp;:DeleteAccountCommand" style="shape=umlLifeline;perimeter=lifelinePerimeter;whiteSpace=wrap;html=1;container=1;dropTarget=0;collapsible=0;recursiveResize=0;outlineConnect=0;portConstraint=eastwest;newEdgeStyle={&quot;edgeStyle&quot;:&quot;elbowEdgeStyle&quot;,&quot;elbow&quot;:&quot;vertical&quot;,&quot;curved&quot;:0,&quot;rounded&quot;:0};fillColor=#dae8fc;strokeColor=#6c8ebf;" parent="1" vertex="1">
          <mxGeometry x="378" y="160" width="142" height="560" as="geometry" />
        </mxCell>
        <mxCell id="cWejEI39qg-8yP3Bkxt4-24" value="" style="html=1;points=[];perimeter=orthogonalPerimeter;outlineConnect=0;targetShapes=umlLifeline;portConstraint=eastwest;newEdgeStyle={&quot;edgeStyle&quot;:&quot;elbowEdgeStyle&quot;,&quot;elbow&quot;:&quot;vertical&quot;,&quot;curved&quot;:0,&quot;rounded&quot;:0};" parent="cWejEI39qg-8yP3Bkxt4-16" vertex="1">
          <mxGeometry x="66" y="60" width="10" height="460" as="geometry" />
        </mxCell>
        <mxCell id="cWejEI39qg-8yP3Bkxt4-27" value="" style="html=1;points=[];perimeter=orthogonalPerimeter;outlineConnect=0;targetShapes=umlLifeline;portConstraint=eastwest;newEdgeStyle={&quot;edgeStyle&quot;:&quot;elbowEdgeStyle&quot;,&quot;elbow&quot;:&quot;vertical&quot;,&quot;curved&quot;:0,&quot;rounded&quot;:0};" parent="cWejEI39qg-8yP3Bkxt4-16" vertex="1">
          <mxGeometry x="70" y="180" width="10" height="20" as="geometry" />
        </mxCell>
        <mxCell id="cWejEI39qg-8yP3Bkxt4-28" value="processCommand()" style="html=1;align=left;spacingLeft=2;endArrow=block;rounded=0;edgeStyle=orthogonalEdgeStyle;curved=0;rounded=0;" parent="cWejEI39qg-8yP3Bkxt4-16" source="cWejEI39qg-8yP3Bkxt4-24" target="cWejEI39qg-8yP3Bkxt4-27" edge="1">
          <mxGeometry x="-1" y="10" relative="1" as="geometry">
            <mxPoint x="82" y="170" as="sourcePoint" />
            <Array as="points">
              <mxPoint x="91" y="170" />
              <mxPoint x="91" y="180" />
            </Array>
            <mxPoint as="offset" />
            <mxPoint x="86" y="180" as="targetPoint" />
          </mxGeometry>
        </mxCell>
        <mxCell id="cWejEI39qg-8yP3Bkxt4-30" value="" style="html=1;verticalAlign=bottom;endArrow=open;dashed=1;endSize=8;edgeStyle=orthogonalEdgeStyle;elbow=vertical;rounded=0;" parent="cWejEI39qg-8yP3Bkxt4-16" source="cWejEI39qg-8yP3Bkxt4-27" target="cWejEI39qg-8yP3Bkxt4-24" edge="1">
          <mxGeometry relative="1" as="geometry">
            <mxPoint x="115" y="250" as="sourcePoint" />
            <mxPoint x="55" y="210.04347826086962" as="targetPoint" />
            <Array as="points">
              <mxPoint x="92" y="200" />
              <mxPoint x="92" y="210" />
            </Array>
          </mxGeometry>
        </mxCell>
        <mxCell id="cWejEI39qg-8yP3Bkxt4-45" value="" style="html=1;points=[];perimeter=orthogonalPerimeter;outlineConnect=0;targetShapes=umlLifeline;portConstraint=eastwest;newEdgeStyle={&quot;edgeStyle&quot;:&quot;elbowEdgeStyle&quot;,&quot;elbow&quot;:&quot;vertical&quot;,&quot;curved&quot;:0,&quot;rounded&quot;:0};" parent="cWejEI39qg-8yP3Bkxt4-16" vertex="1">
          <mxGeometry x="70" y="324" width="10" height="60" as="geometry" />
        </mxCell>
        <mxCell id="cWejEI39qg-8yP3Bkxt4-46" value="printSuccess(:Ui)" style="html=1;align=left;spacingLeft=2;endArrow=block;rounded=0;edgeStyle=orthogonalEdgeStyle;curved=0;rounded=0;" parent="cWejEI39qg-8yP3Bkxt4-16" target="cWejEI39qg-8yP3Bkxt4-45" edge="1">
          <mxGeometry x="-0.8235" y="10" relative="1" as="geometry">
            <mxPoint x="76" y="314" as="sourcePoint" />
            <Array as="points">
              <mxPoint x="92" y="314" />
              <mxPoint x="92" y="324" />
            </Array>
            <mxPoint as="offset" />
            <mxPoint x="82" y="324" as="targetPoint" />
          </mxGeometry>
        </mxCell>
        <mxCell id="cWejEI39qg-8yP3Bkxt4-47" value="" style="html=1;verticalAlign=bottom;endArrow=open;dashed=1;endSize=8;edgeStyle=orthogonalEdgeStyle;elbow=vertical;rounded=0;" parent="cWejEI39qg-8yP3Bkxt4-16" source="cWejEI39qg-8yP3Bkxt4-45" edge="1">
          <mxGeometry relative="1" as="geometry">
            <mxPoint x="115" y="364" as="sourcePoint" />
            <mxPoint x="76" y="394" as="targetPoint" />
            <Array as="points">
              <mxPoint x="92" y="384" />
              <mxPoint x="92" y="394" />
            </Array>
          </mxGeometry>
        </mxCell>
        <mxCell id="cWejEI39qg-8yP3Bkxt4-26" value="" style="html=1;verticalAlign=bottom;endArrow=open;dashed=1;endSize=8;edgeStyle=elbowEdgeStyle;elbow=vertical;curved=0;rounded=0;" parent="1" edge="1">
          <mxGeometry relative="1" as="geometry">
            <mxPoint x="180" y="680" as="targetPoint" />
            <mxPoint x="448.5" y="680" as="sourcePoint" />
            <Array as="points">
              <mxPoint x="390" y="680" />
              <mxPoint x="380" y="620" />
              <mxPoint x="370" y="590" />
              <mxPoint x="360" y="600" />
              <mxPoint x="240" y="510" />
            </Array>
          </mxGeometry>
        </mxCell>
        <mxCell id="cWejEI39qg-8yP3Bkxt4-31" value=": AccountList" style="shape=umlLifeline;perimeter=lifelinePerimeter;whiteSpace=wrap;html=1;container=1;dropTarget=0;collapsible=0;recursiveResize=0;outlineConnect=0;portConstraint=eastwest;newEdgeStyle={&quot;edgeStyle&quot;:&quot;elbowEdgeStyle&quot;,&quot;elbow&quot;:&quot;vertical&quot;,&quot;curved&quot;:0,&quot;rounded&quot;:0};fillColor=#dae8fc;strokeColor=#6c8ebf;" parent="1" vertex="1">
          <mxGeometry x="650" y="160" width="110" height="560" as="geometry" />
        </mxCell>
        <mxCell id="cWejEI39qg-8yP3Bkxt4-32" value="" style="html=1;points=[];perimeter=orthogonalPerimeter;outlineConnect=0;targetShapes=umlLifeline;portConstraint=eastwest;newEdgeStyle={&quot;edgeStyle&quot;:&quot;elbowEdgeStyle&quot;,&quot;elbow&quot;:&quot;vertical&quot;,&quot;curved&quot;:0,&quot;rounded&quot;:0};" parent="cWejEI39qg-8yP3Bkxt4-31" vertex="1">
          <mxGeometry x="50" y="250" width="10" height="30" as="geometry" />
        </mxCell>
        <mxCell id="cWejEI39qg-8yP3Bkxt4-33" value="deleteAccount(:Currency)" style="html=1;verticalAlign=bottom;endArrow=block;edgeStyle=elbowEdgeStyle;elbow=vertical;curved=0;rounded=0;" parent="1" source="cWejEI39qg-8yP3Bkxt4-24" target="cWejEI39qg-8yP3Bkxt4-32" edge="1">
          <mxGeometry x="0.2713" relative="1" as="geometry">
            <mxPoint x="433" y="410" as="sourcePoint" />
            <Array as="points">
              <mxPoint x="520" y="410" />
            </Array>
            <mxPoint as="offset" />
          </mxGeometry>
        </mxCell>
        <mxCell id="cWejEI39qg-8yP3Bkxt4-48" value=":Ui" style="shape=umlLifeline;perimeter=lifelinePerimeter;whiteSpace=wrap;html=1;container=1;dropTarget=0;collapsible=0;recursiveResize=0;outlineConnect=0;portConstraint=eastwest;newEdgeStyle={&quot;edgeStyle&quot;:&quot;elbowEdgeStyle&quot;,&quot;elbow&quot;:&quot;vertical&quot;,&quot;curved&quot;:0,&quot;rounded&quot;:0};fillColor=#dae8fc;strokeColor=#6c8ebf;" parent="1" vertex="1">
          <mxGeometry x="540" y="160" width="100" height="560" as="geometry" />
        </mxCell>
        <mxCell id="cWejEI39qg-8yP3Bkxt4-49" value="" style="html=1;points=[];perimeter=orthogonalPerimeter;outlineConnect=0;targetShapes=umlLifeline;portConstraint=eastwest;newEdgeStyle={&quot;edgeStyle&quot;:&quot;elbowEdgeStyle&quot;,&quot;elbow&quot;:&quot;vertical&quot;,&quot;curved&quot;:0,&quot;rounded&quot;:0};" parent="cWejEI39qg-8yP3Bkxt4-48" vertex="1">
          <mxGeometry x="45" y="344" width="10" height="20" as="geometry" />
        </mxCell>
        <mxCell id="cWejEI39qg-8yP3Bkxt4-50" value="printf(:String, :String)" style="html=1;verticalAlign=bottom;endArrow=block;edgeStyle=elbowEdgeStyle;elbow=vertical;curved=0;rounded=0;" parent="1" source="cWejEI39qg-8yP3Bkxt4-45" target="cWejEI39qg-8yP3Bkxt4-49" edge="1">
          <mxGeometry x="0.0079" relative="1" as="geometry">
            <mxPoint x="720" y="514" as="sourcePoint" />
            <Array as="points">
              <mxPoint x="500" y="504" />
              <mxPoint x="610" y="524" />
              <mxPoint x="750" y="504" />
            </Array>
            <mxPoint as="offset" />
          </mxGeometry>
        </mxCell>
        <mxCell id="cWejEI39qg-8yP3Bkxt4-51" value="" style="html=1;verticalAlign=bottom;endArrow=open;dashed=1;endSize=8;edgeStyle=elbowEdgeStyle;elbow=vertical;curved=0;rounded=0;" parent="1" source="cWejEI39qg-8yP3Bkxt4-49" target="cWejEI39qg-8yP3Bkxt4-45" edge="1">
          <mxGeometry relative="1" as="geometry">
            <mxPoint x="795" y="579" as="targetPoint" />
            <Array as="points">
              <mxPoint x="520" y="524" />
              <mxPoint x="780" y="544" />
              <mxPoint x="720" y="584" />
            </Array>
          </mxGeometry>
        </mxCell>
        <mxCell id="cWejEI39qg-8yP3Bkxt4-55" value="execute(:Ui, :AccountList)&amp;nbsp;" style="html=1;verticalAlign=bottom;startArrow=oval;startFill=1;endArrow=block;startSize=8;edgeStyle=elbowEdgeStyle;elbow=vertical;curved=0;rounded=0;" parent="1" target="cWejEI39qg-8yP3Bkxt4-24" edge="1">
          <mxGeometry x="-0.3416" width="60" relative="1" as="geometry">
            <mxPoint x="180" y="220" as="sourcePoint" />
            <mxPoint x="420" y="240" as="targetPoint" />
            <Array as="points">
              <mxPoint x="370" y="220" />
              <mxPoint x="320" y="240" />
            </Array>
            <mxPoint as="offset" />
          </mxGeometry>
        </mxCell>
        <mxCell id="cWejEI39qg-8yP3Bkxt4-57" value="" style="endArrow=none;dashed=1;html=1;strokeWidth=1;rounded=0;exitX=0.001;exitY=0.147;exitDx=0;exitDy=0;exitPerimeter=0;" parent="1" source="cWejEI39qg-8yP3Bkxt4-56" edge="1">
          <mxGeometry width="50" height="50" relative="1" as="geometry">
            <mxPoint x="260.72" y="308.95500000000004" as="sourcePoint" />
            <mxPoint x="930" y="310" as="targetPoint" />
          </mxGeometry>
        </mxCell>
        <mxCell id="cWejEI39qg-8yP3Bkxt4-61" value="" style="html=1;points=[];perimeter=orthogonalPerimeter;outlineConnect=0;targetShapes=umlLifeline;portConstraint=eastwest;newEdgeStyle={&quot;edgeStyle&quot;:&quot;elbowEdgeStyle&quot;,&quot;elbow&quot;:&quot;vertical&quot;,&quot;curved&quot;:0,&quot;rounded&quot;:0};" parent="1" vertex="1">
          <mxGeometry x="585" y="270" width="10" height="20" as="geometry" />
        </mxCell>
        <mxCell id="cWejEI39qg-8yP3Bkxt4-62" value="print(:String)" style="html=1;verticalAlign=bottom;endArrow=block;edgeStyle=elbowEdgeStyle;elbow=vertical;curved=0;rounded=0;" parent="1" source="cWejEI39qg-8yP3Bkxt4-24" target="cWejEI39qg-8yP3Bkxt4-61" edge="1">
          <mxGeometry relative="1" as="geometry">
            <mxPoint x="440" y="270" as="sourcePoint" />
            <Array as="points">
              <mxPoint x="496" y="270" />
              <mxPoint x="606" y="290" />
              <mxPoint x="746" y="270" />
            </Array>
          </mxGeometry>
        </mxCell>
        <mxCell id="cWejEI39qg-8yP3Bkxt4-63" value="" style="html=1;verticalAlign=bottom;endArrow=open;dashed=1;endSize=8;edgeStyle=elbowEdgeStyle;elbow=vertical;curved=0;rounded=0;" parent="1" source="cWejEI39qg-8yP3Bkxt4-61" target="cWejEI39qg-8yP3Bkxt4-24" edge="1">
          <mxGeometry relative="1" as="geometry">
            <mxPoint x="434" y="290" as="targetPoint" />
            <Array as="points">
              <mxPoint x="516" y="290" />
              <mxPoint x="776" y="310" />
              <mxPoint x="716" y="350" />
            </Array>
          </mxGeometry>
        </mxCell>
        <mxCell id="cWejEI39qg-8yP3Bkxt4-64" value="[Exception]" style="text;html=1;strokeColor=none;fillColor=none;align=center;verticalAlign=middle;whiteSpace=wrap;rounded=0;" parent="1" vertex="1">
          <mxGeometry x="300" y="280" width="60" height="30" as="geometry" />
        </mxCell>
        <mxCell id="cWejEI39qg-8yP3Bkxt4-66" value="[else]" style="text;html=1;strokeColor=none;fillColor=none;align=center;verticalAlign=middle;whiteSpace=wrap;rounded=0;" parent="1" vertex="1">
          <mxGeometry x="260" y="320" width="60" height="30" as="geometry" />
        </mxCell>
        <mxCell id="m2rEJJVQuIu6z5jFifZv-1" value="transaction: TransactionManager" style="shape=umlLifeline;perimeter=lifelinePerimeter;whiteSpace=wrap;html=1;container=1;dropTarget=0;collapsible=0;recursiveResize=0;outlineConnect=0;portConstraint=eastwest;newEdgeStyle={&quot;edgeStyle&quot;:&quot;elbowEdgeStyle&quot;,&quot;elbow&quot;:&quot;vertical&quot;,&quot;curved&quot;:0,&quot;rounded&quot;:0};fillColor=#dae8fc;strokeColor=#6c8ebf;" parent="1" vertex="1">
          <mxGeometry x="780" y="160" width="111" height="560" as="geometry" />
        </mxCell>
        <mxCell id="m2rEJJVQuIu6z5jFifZv-2" value="" style="html=1;points=[];perimeter=orthogonalPerimeter;outlineConnect=0;targetShapes=umlLifeline;portConstraint=eastwest;newEdgeStyle={&quot;edgeStyle&quot;:&quot;elbowEdgeStyle&quot;,&quot;elbow&quot;:&quot;vertical&quot;,&quot;curved&quot;:0,&quot;rounded&quot;:0};" parent="m2rEJJVQuIu6z5jFifZv-1" vertex="1">
          <mxGeometry x="50.5" y="414" width="10" height="10" as="geometry" />
        </mxCell>
        <mxCell id="m2rEJJVQuIu6z5jFifZv-3" value="deleteCurrencyTransaction (currency: Currency)" style="html=1;verticalAlign=bottom;endArrow=block;edgeStyle=elbowEdgeStyle;elbow=vertical;curved=0;rounded=0;" parent="1" edge="1">
          <mxGeometry relative="1" as="geometry">
            <mxPoint x="454" y="574" as="sourcePoint" />
            <mxPoint x="830" y="574" as="targetPoint" />
          </mxGeometry>
        </mxCell>
        <mxCell id="m2rEJJVQuIu6z5jFifZv-4" value="" style="html=1;points=[];perimeter=orthogonalPerimeter;outlineConnect=0;targetShapes=umlLifeline;portConstraint=eastwest;newEdgeStyle={&quot;edgeStyle&quot;:&quot;elbowEdgeStyle&quot;,&quot;elbow&quot;:&quot;vertical&quot;,&quot;curved&quot;:0,&quot;rounded&quot;:0};" parent="1" vertex="1">
          <mxGeometry x="699.5" y="607" width="10" height="10" as="geometry" />
        </mxCell>
        <mxCell id="m2rEJJVQuIu6z5jFifZv-5" value="save()" style="html=1;verticalAlign=bottom;endArrow=block;edgeStyle=elbowEdgeStyle;elbow=vertical;curved=0;rounded=0;" parent="1" edge="1">
          <mxGeometry relative="1" as="geometry">
            <mxPoint x="454" y="607" as="sourcePoint" />
            <mxPoint x="699" y="607" as="targetPoint" />
          </mxGeometry>
        </mxCell>
      </root>
    </mxGraphModel>
  </diagram>
</mxfile>
